<svg width="466" height="114" viewBox="0 0 466 114" fill="none" xmlns="http://www.w3.org/2000/svg">
<g filter="url(#filter0_d_75_11)">
<mask id="path-1-outside-1_75_11" maskUnits="userSpaceOnUse" x="3.992" y="0.567993" width="458" height="106" fill="black">
<rect fill="white" x="3.992" y="0.567993" width="458" height="106"/>
<path d="M15.976 103.816C12.904 103.816 10.2587 103.261 8.04 102.152C6.67467 101.384 5.992 100.488 5.992 99.464C5.992 98.44 6.248 97.6293 6.76 97.032C7.272 96.3493 7.99734 96.008 8.936 96.008C9.78934 96.008 11.0267 96.3493 12.648 97.032C14.44 97.7147 15.5493 98.056 15.976 98.056C17.5973 98.056 19.048 97.3733 20.328 96.008C21.6933 94.5573 22.76 92.68 23.528 90.376C25.064 86.1093 25.832 82.2693 25.832 78.856C25.832 75.1867 25.2347 71.3467 24.04 67.336C22.9307 63.24 21.3947 59.272 19.432 55.432L17.384 51.336C15.2507 47.0693 13.5867 43.6987 12.392 41.224C11.2827 38.7493 10.3013 36.0613 9.448 33.16C8.168 29.064 7.528 25.096 7.528 21.256C7.528 18.184 8.04 15.2827 9.064 12.552C10.1733 9.82133 11.7947 7.51733 13.928 5.63999C16.0613 3.59199 18.7067 2.56799 21.864 2.56799C23.4 2.56799 24.8933 3.03733 26.344 3.976C27.7947 4.82933 28.8187 5.93866 29.416 7.30399L27.24 9.992C25.0213 9.992 23.3573 9.56533 22.248 8.712C20.712 8.88266 19.3467 9.65066 18.152 11.016C17.0427 12.296 16.1893 13.7893 15.592 15.496C15.08 17.1173 14.824 18.7387 14.824 20.36C14.824 23.6027 15.2507 26.9307 16.104 30.344C17.0427 33.672 18.2373 36.8293 19.688 39.816L28.648 57.736C30.0987 60.808 31.2507 64.264 32.104 68.104C32.9573 71.944 33.384 75.784 33.384 79.624C33.384 85.256 32.0187 90.5467 29.288 95.496C27.8373 98.056 25.96 100.061 23.656 101.512C21.352 103.048 18.792 103.816 15.976 103.816Z"/>
<path d="M61.754 102.92C59.706 102.92 57.8713 102.451 56.25 101.512C54.6287 100.659 53.306 99.3787 52.282 97.672C50.234 94.088 48.9113 90.0347 48.314 85.512C47.7167 81.5867 47.418 76.8933 47.418 71.432C47.162 62.216 47.034 50.952 47.034 37.64L46.906 27.784C46.8207 27.272 46.778 26.4187 46.778 25.224C46.6073 21.9813 46.522 20.0187 46.522 19.336C47.29 17.544 48.186 16.648 49.21 16.648C50.234 16.648 51.13 17.416 51.898 18.952C52.7513 20.488 53.178 22.152 53.178 23.944V58.76C53.178 62.1733 53.4767 66.696 54.074 72.328C54.6713 79.3253 54.97 83.848 54.97 85.896C54.97 92.2107 57.658 95.368 63.034 95.368C69.178 95.368 72.25 72.4133 72.25 26.504V18.184C72.1647 17.928 72.122 17.5867 72.122 17.16C72.122 16.136 72.3353 15.4107 72.762 14.984C73.274 14.472 74.2127 14.216 75.578 14.216C76.6873 14.216 77.5407 14.5573 78.138 15.24C78.8207 15.8373 79.2473 16.5627 79.418 17.416C79.5033 17.928 79.546 18.9093 79.546 20.36C79.546 21.7253 79.418 23.9013 79.162 26.888C78.8207 29.3627 78.65 31.496 78.65 33.288C78.65 35.2507 78.5647 37 78.394 38.536L78.138 43.912V44.936C78.2233 45.2773 78.266 45.6613 78.266 46.088C78.266 83.976 72.762 102.92 61.754 102.92Z"/>
<path d="M129.252 101.384C128.228 101.384 127.46 101.128 126.948 100.616C126.436 100.019 126.052 99.0373 125.796 97.672L125.028 95.24V94.6C125.028 91.784 122.084 82.184 116.196 65.8C110.393 49.416 105.828 37.2987 102.5 29.448V93.832L103.012 94.728C103.097 94.8987 103.268 95.1973 103.524 95.624C103.78 96.0507 103.908 96.4773 103.908 96.904C103.908 98.0133 103.524 98.952 102.756 99.72C101.988 100.488 101.049 100.872 99.94 100.872C97.2093 100.872 95.844 98.2693 95.844 93.064L95.716 71.176C95.6307 64.6053 95.588 57.2667 95.588 49.16C95.588 46.4293 95.716 42.4613 95.972 37.256C96.228 31.88 96.356 27.912 96.356 25.352C96.356 21.3413 97.892 18.184 100.964 15.88V16.648C101.476 16.4773 101.817 16.392 101.988 16.392C103.951 16.392 106.425 19.8053 109.412 26.632C111.801 32.0933 113.935 37.8533 115.812 43.912C117.775 49.9707 120.335 58.5893 123.492 69.768L124.772 74.376C126.735 81.288 128.228 86.2373 129.252 89.224C130.959 70.8773 131.812 49.2027 131.812 24.2V22.536C131.727 22.024 131.684 21.4693 131.684 20.872C131.684 18.312 132.708 17.032 134.756 17.032C135.951 17.032 136.847 17.5013 137.444 18.44C138.127 19.3787 138.468 20.5733 138.468 22.024V31.624C138.297 44.7653 137.785 59.016 136.932 74.376C136.079 89.736 135.055 98.3973 133.86 100.36C131.385 101.043 129.849 101.384 129.252 101.384Z"/>
<path d="M159.654 101.768C157.435 101.768 156.326 96.1787 156.326 85L156.582 64.776C156.667 58.8027 156.71 52.104 156.71 44.68C156.71 41.9493 156.454 37.7253 155.942 32.008C155.515 25.7787 155.302 21.9813 155.302 20.616C155.302 19.5067 155.771 18.5253 156.71 17.672C157.649 16.8187 158.673 16.392 159.782 16.392C162.769 16.392 165.627 17.0747 168.358 18.44C171.174 19.72 173.649 21.5547 175.782 23.944C180.305 29.1493 183.291 34.8667 184.742 41.096C185.51 44.2533 185.894 47.368 185.894 50.44C185.894 51.5493 185.851 52.5733 185.766 53.512L185.638 56.968V64.008C185.638 69.4693 185.467 73.7787 185.126 76.936C184.614 81.2027 183.633 85 182.182 88.328C180.475 91.912 178.001 95.112 174.758 97.928C173.222 99.208 171.259 100.488 168.87 101.768H159.654ZM165.286 95.24C166.993 95.24 168.571 94.8133 170.022 93.96C171.473 93.0213 172.71 91.784 173.734 90.248C174.587 88.8827 175.355 87.176 176.038 85.128C176.806 82.9947 177.361 80.9467 177.702 78.984C178.47 75.144 178.939 71.2187 179.11 67.208C179.195 66.184 179.238 64.6907 179.238 62.728C179.238 36.9573 174.246 23.5173 164.262 22.408C163.665 26.248 163.366 30.6853 163.366 35.72C163.366 41.096 163.707 50.4827 164.39 63.88C164.987 75.7413 165.286 85.1707 165.286 92.168V95.24Z"/>
<path d="M225.024 102.152C223.061 102.152 221.611 101.853 220.672 101.256C219.733 100.659 219.264 99.5493 219.264 97.928C219.264 95.368 218.837 91.016 217.984 84.872L217.472 82.184L204.8 80.264C204.288 82.2267 203.563 86.1947 202.624 92.168C202.112 96.3493 201.301 99.1227 200.192 100.488C199.595 101.256 198.741 101.64 197.632 101.64C196.608 101.64 195.669 101.341 194.816 100.744C193.963 100.061 193.536 99.2507 193.536 98.312L193.792 97.672L193.92 97.16C199.552 75.2293 203.819 53.5973 206.72 32.264C206.72 31.9227 206.763 31.368 206.848 30.6C206.933 29.7467 207.019 28.552 207.104 27.016C207.36 23.8587 207.616 21.3413 207.872 19.464C208.213 17.5867 208.725 16.1787 209.408 15.24H213.76C214.955 15.24 215.979 15.5387 216.832 16.136C217.685 16.648 218.112 17.416 218.112 18.44C218.112 24.9253 219.008 34.568 220.8 47.368C222.507 60.5093 223.36 69.7253 223.36 75.016C223.36 75.528 223.573 76.8507 224 78.984C224.427 80.9467 224.64 82.2267 224.64 82.824C224.64 83.4213 225.067 85.9813 225.92 90.504C226.688 94.6 227.072 97.2453 227.072 98.44V98.568C227.072 100.445 226.389 101.64 225.024 102.152ZM216.576 77.576C216.32 76.296 216.192 74.7173 216.192 72.84C216.192 65.16 215.509 55.3467 214.144 43.4L212.864 30.088C209.195 50.1413 206.677 65.288 205.312 75.528C206.592 76.3813 210.347 77.064 216.576 77.576Z"/>
<path d="M248.554 102.792C247.103 102.792 245.909 101.853 244.97 99.976C245.909 98.184 246.378 90.9307 246.378 78.216C246.378 75.2293 246.165 71.9867 245.738 68.488L245.354 64.776C245.098 62.472 244.97 60.7227 244.97 59.528V56.2C244.117 54.0667 242.538 50.0987 240.234 44.296C238.015 38.4933 236.223 33.6293 234.858 29.704C233.237 25.1813 232.426 22.1093 232.426 20.488V19.848L235.37 17.672C236.821 17.8427 238.357 19.72 239.978 23.304C241.343 26.4613 242.837 30.984 244.458 36.872C246.165 42.76 247.018 45.8747 247.018 46.216C247.359 45.2773 248.042 42.0773 249.066 36.616C250.09 31.1547 251.242 26.3333 252.522 22.152C253.973 17.9707 255.466 15.88 257.002 15.88C257.855 15.88 258.581 16.136 259.178 16.648C259.861 17.16 260.202 17.8 260.202 18.568C260.202 22.92 259.007 29.064 256.618 37C254.058 45.6187 252.778 51.848 252.778 55.688V94.216C252.778 99.9333 251.37 102.792 248.554 102.792Z"/>
<path d="M321.235 102.28C319.614 102.28 318.035 101.128 316.499 98.824V98.44C316.243 93.9173 315.475 88.8827 314.195 83.336C312.915 77.7893 311.038 71.0907 308.563 63.24C306.686 57.352 305.107 52.0613 303.827 47.368V97.8C303.827 99.1653 303.571 100.189 303.059 100.872C302.632 101.469 301.736 101.768 300.371 101.768C299.347 101.768 298.536 101.469 297.939 100.872C297.342 100.189 297.043 99.336 297.043 98.312V97.288L297.299 59.656C297.47 48.5627 297.555 36.0613 297.555 22.152V6.408C297.555 5.384 297.768 4.70133 298.195 4.35999C298.622 3.93333 299.518 3.71999 300.883 3.71999C303.016 3.71999 304.979 4.14666 306.771 4.99999C308.563 5.76799 310.099 6.87733 311.379 8.328C314.024 11.3147 315.731 14.8987 316.499 19.08C316.84 20.7867 317.011 22.7493 317.011 24.968C317.011 26.248 316.883 27.656 316.627 29.192C316.456 30.728 316.328 31.7093 316.243 32.136C316.072 32.9893 315.688 34.2693 315.091 35.976C314.494 37.6827 314.11 38.792 313.939 39.304L312.403 42.888L311.123 46.216C311.208 49.288 311.72 53.1707 312.659 57.864C313.683 62.5573 314.792 66.9093 315.987 70.92C316.84 73.736 318.376 78.4293 320.595 85L324.307 96.264V96.52C324.307 97.9707 324.179 99.208 323.923 100.232C323.667 101.597 322.771 102.28 321.235 102.28ZM303.571 41.608C304.766 40.4133 306.216 38.7493 307.923 36.616L309.843 25.608C309.928 25.1813 309.971 24.584 309.971 23.816C309.971 21.3413 309.502 18.4827 308.563 15.24C308.051 13.704 307.368 12.424 306.515 11.4C305.747 10.2907 304.936 9.69333 304.083 9.60799L303.827 22.408C303.571 28.1253 303.443 32.5627 303.443 35.72C303.443 38.7067 303.486 40.6693 303.571 41.608Z"/>
<path d="M340.571 102.664C339.462 102.664 338.438 102.28 337.499 101.512C336.646 100.744 336.176 99.8053 336.091 98.696V92.808C336.006 92.04 335.963 91.144 335.963 90.12C335.963 88.328 335.835 85.5973 335.579 81.928L335.323 73.736C335.323 69.5547 335.451 63.3253 335.707 55.048C336.048 47.624 336.219 41.3947 336.219 36.36C336.219 35.1653 336.091 33.3733 335.835 30.984C335.579 28.5093 335.451 26.7173 335.451 25.608C335.451 19.5493 337.243 16.52 340.827 16.52C343.643 16.52 346.886 17.0747 350.555 18.184C354.31 19.2933 356.187 20.616 356.187 22.152C356.187 23.0053 355.803 23.816 355.035 24.584C354.352 25.2667 353.499 25.8213 352.475 26.248C348.891 24.968 345.648 24.1147 342.747 23.688C342.832 24.968 342.875 26.8027 342.875 29.192C342.875 32.6053 342.832 35.6773 342.747 38.408C342.491 42.504 342.363 45.576 342.363 47.624L342.747 49.672L344.795 49.544C345.478 49.4587 346.331 49.416 347.355 49.416C351.451 49.416 353.499 50.6107 353.499 53C353.499 53.9387 353.115 54.7493 352.347 55.432C351.579 56.0293 350.598 56.328 349.403 56.328C347.867 56.328 346.672 56.2427 345.819 56.072H342.619C342.79 58.2907 342.875 61.5333 342.875 65.8C342.875 70.0667 342.832 73.9067 342.747 77.32C342.491 82.5253 342.363 86.408 342.363 88.968C342.363 93.7467 342.448 96.136 342.619 96.136L346.843 96.008C348.294 95.9227 350.043 95.88 352.091 95.88C355.334 95.88 356.955 96.904 356.955 98.952C356.955 100.147 356.4 101.043 355.291 101.64C354.267 102.323 352.987 102.664 351.451 102.664H340.571Z"/>
<path d="M373.362 102.792C371.826 102.536 370.503 101.981 369.394 101.128C368.37 100.275 367.773 99.1653 367.602 97.8L369.01 95.624C369.522 95.624 370.333 95.7947 371.442 96.136C372.722 96.392 373.703 96.52 374.386 96.52C375.922 96.52 377.287 95.8373 378.482 94.472C379.762 93.1067 380.701 91.3147 381.298 89.096C382.407 85 382.962 81.3307 382.962 78.088C382.962 72.456 381.17 66.5253 377.586 60.296L376.178 57.864C374.557 55.048 373.191 52.5307 372.082 50.312C370.973 48.0933 370.034 45.704 369.266 43.144C368.242 39.816 367.73 36.488 367.73 33.16C367.73 29.4053 368.583 25.48 370.29 21.384C371.143 19.4213 372.338 17.8427 373.874 16.648C375.495 15.368 377.287 14.728 379.25 14.728C380.786 14.728 382.194 15.24 383.474 16.264C384.839 17.2027 385.522 18.3547 385.522 19.72C385.522 20.488 385.223 21.0853 384.626 21.512C384.029 21.9387 383.303 22.152 382.45 22.152C381.511 22.152 380.615 21.896 379.762 21.384C377.885 21.4693 376.391 23.1333 375.282 26.376C374.343 29.3627 373.874 31.8373 373.874 33.8C373.874 36.2747 374.258 38.792 375.026 41.352C375.794 43.8267 376.775 46.088 377.97 48.136L380.786 53.256L385.266 61.704C386.461 64.0933 387.399 66.8667 388.082 70.024C388.85 73.1813 389.234 76.3813 389.234 79.624C389.234 84.8293 388.039 89.7787 385.65 94.472C384.455 96.8613 382.749 98.7813 380.53 100.232C378.397 101.683 376.007 102.408 373.362 102.408V102.792Z"/>
<path d="M408.571 102.664C407.462 102.664 406.438 102.28 405.499 101.512C404.646 100.744 404.176 99.8053 404.091 98.696V92.808C404.006 92.04 403.963 91.144 403.963 90.12C403.963 88.328 403.835 85.5973 403.579 81.928L403.323 73.736C403.323 69.5547 403.451 63.3253 403.707 55.048C404.048 47.624 404.219 41.3947 404.219 36.36C404.219 35.1653 404.091 33.3733 403.835 30.984C403.579 28.5093 403.451 26.7173 403.451 25.608C403.451 19.5493 405.243 16.52 408.827 16.52C411.643 16.52 414.886 17.0747 418.555 18.184C422.31 19.2933 424.187 20.616 424.187 22.152C424.187 23.0053 423.803 23.816 423.035 24.584C422.352 25.2667 421.499 25.8213 420.475 26.248C416.891 24.968 413.648 24.1147 410.747 23.688C410.832 24.968 410.875 26.8027 410.875 29.192C410.875 32.6053 410.832 35.6773 410.747 38.408C410.491 42.504 410.363 45.576 410.363 47.624L410.747 49.672L412.795 49.544C413.478 49.4587 414.331 49.416 415.355 49.416C419.451 49.416 421.499 50.6107 421.499 53C421.499 53.9387 421.115 54.7493 420.347 55.432C419.579 56.0293 418.598 56.328 417.403 56.328C415.867 56.328 414.672 56.2427 413.819 56.072H410.619C410.79 58.2907 410.875 61.5333 410.875 65.8C410.875 70.0667 410.832 73.9067 410.747 77.32C410.491 82.5253 410.363 86.408 410.363 88.968C410.363 93.7467 410.448 96.136 410.619 96.136L414.843 96.008C416.294 95.9227 418.043 95.88 420.091 95.88C423.334 95.88 424.955 96.904 424.955 98.952C424.955 100.147 424.4 101.043 423.291 101.64C422.267 102.323 420.987 102.664 419.451 102.664H408.571Z"/>
<path d="M446.226 98.952L446.098 93.96C446.013 92.5093 445.97 90.888 445.97 89.096L446.098 84.744C445.842 83.8053 445.202 74.4613 444.178 56.712C443.154 38.9627 442.557 27.5707 442.386 22.536C437.437 22.3653 434.279 21.8533 432.914 21C431.975 20.3173 431.506 19.5493 431.506 18.696C431.506 18.0133 431.933 17.416 432.786 16.904C433.725 16.3067 434.663 16.008 435.602 16.008C437.991 16.008 440.893 16.1787 444.306 16.52C447.549 16.9467 450.45 17.16 453.01 17.16H455.058C457.703 17.16 459.026 18.184 459.026 20.232C459.026 21.256 458.599 22.1093 457.746 22.792C456.893 23.3893 455.911 23.688 454.802 23.688C454.034 23.688 452.925 23.56 451.474 23.304L448.914 22.792L448.658 24.072C448.658 31.6667 449.383 43.784 450.834 60.424C452.199 76.04 452.882 88.1573 452.882 96.776C452.882 97.8 452.413 98.696 451.474 99.464C450.621 100.232 449.639 100.616 448.53 100.616L446.226 98.952Z"/>
</mask>
<path d="M15.976 103.816C12.904 103.816 10.2587 103.261 8.04 102.152C6.67467 101.384 5.992 100.488 5.992 99.464C5.992 98.44 6.248 97.6293 6.76 97.032C7.272 96.3493 7.99734 96.008 8.936 96.008C9.78934 96.008 11.0267 96.3493 12.648 97.032C14.44 97.7147 15.5493 98.056 15.976 98.056C17.5973 98.056 19.048 97.3733 20.328 96.008C21.6933 94.5573 22.76 92.68 23.528 90.376C25.064 86.1093 25.832 82.2693 25.832 78.856C25.832 75.1867 25.2347 71.3467 24.04 67.336C22.9307 63.24 21.3947 59.272 19.432 55.432L17.384 51.336C15.2507 47.0693 13.5867 43.6987 12.392 41.224C11.2827 38.7493 10.3013 36.0613 9.448 33.16C8.168 29.064 7.528 25.096 7.528 21.256C7.528 18.184 8.04 15.2827 9.064 12.552C10.1733 9.82133 11.7947 7.51733 13.928 5.63999C16.0613 3.59199 18.7067 2.56799 21.864 2.56799C23.4 2.56799 24.8933 3.03733 26.344 3.976C27.7947 4.82933 28.8187 5.93866 29.416 7.30399L27.24 9.992C25.0213 9.992 23.3573 9.56533 22.248 8.712C20.712 8.88266 19.3467 9.65066 18.152 11.016C17.0427 12.296 16.1893 13.7893 15.592 15.496C15.08 17.1173 14.824 18.7387 14.824 20.36C14.824 23.6027 15.2507 26.9307 16.104 30.344C17.0427 33.672 18.2373 36.8293 19.688 39.816L28.648 57.736C30.0987 60.808 31.2507 64.264 32.104 68.104C32.9573 71.944 33.384 75.784 33.384 79.624C33.384 85.256 32.0187 90.5467 29.288 95.496C27.8373 98.056 25.96 100.061 23.656 101.512C21.352 103.048 18.792 103.816 15.976 103.816Z" fill="#C2E7EF"/>
<path d="M61.754 102.92C59.706 102.92 57.8713 102.451 56.25 101.512C54.6287 100.659 53.306 99.3787 52.282 97.672C50.234 94.088 48.9113 90.0347 48.314 85.512C47.7167 81.5867 47.418 76.8933 47.418 71.432C47.162 62.216 47.034 50.952 47.034 37.64L46.906 27.784C46.8207 27.272 46.778 26.4187 46.778 25.224C46.6073 21.9813 46.522 20.0187 46.522 19.336C47.29 17.544 48.186 16.648 49.21 16.648C50.234 16.648 51.13 17.416 51.898 18.952C52.7513 20.488 53.178 22.152 53.178 23.944V58.76C53.178 62.1733 53.4767 66.696 54.074 72.328C54.6713 79.3253 54.97 83.848 54.97 85.896C54.97 92.2107 57.658 95.368 63.034 95.368C69.178 95.368 72.25 72.4133 72.25 26.504V18.184C72.1647 17.928 72.122 17.5867 72.122 17.16C72.122 16.136 72.3353 15.4107 72.762 14.984C73.274 14.472 74.2127 14.216 75.578 14.216C76.6873 14.216 77.5407 14.5573 78.138 15.24C78.8207 15.8373 79.2473 16.5627 79.418 17.416C79.5033 17.928 79.546 18.9093 79.546 20.36C79.546 21.7253 79.418 23.9013 79.162 26.888C78.8207 29.3627 78.65 31.496 78.65 33.288C78.65 35.2507 78.5647 37 78.394 38.536L78.138 43.912V44.936C78.2233 45.2773 78.266 45.6613 78.266 46.088C78.266 83.976 72.762 102.92 61.754 102.92Z" fill="#C2E7EF"/>
<path d="M129.252 101.384C128.228 101.384 127.46 101.128 126.948 100.616C126.436 100.019 126.052 99.0373 125.796 97.672L125.028 95.24V94.6C125.028 91.784 122.084 82.184 116.196 65.8C110.393 49.416 105.828 37.2987 102.5 29.448V93.832L103.012 94.728C103.097 94.8987 103.268 95.1973 103.524 95.624C103.78 96.0507 103.908 96.4773 103.908 96.904C103.908 98.0133 103.524 98.952 102.756 99.72C101.988 100.488 101.049 100.872 99.94 100.872C97.2093 100.872 95.844 98.2693 95.844 93.064L95.716 71.176C95.6307 64.6053 95.588 57.2667 95.588 49.16C95.588 46.4293 95.716 42.4613 95.972 37.256C96.228 31.88 96.356 27.912 96.356 25.352C96.356 21.3413 97.892 18.184 100.964 15.88V16.648C101.476 16.4773 101.817 16.392 101.988 16.392C103.951 16.392 106.425 19.8053 109.412 26.632C111.801 32.0933 113.935 37.8533 115.812 43.912C117.775 49.9707 120.335 58.5893 123.492 69.768L124.772 74.376C126.735 81.288 128.228 86.2373 129.252 89.224C130.959 70.8773 131.812 49.2027 131.812 24.2V22.536C131.727 22.024 131.684 21.4693 131.684 20.872C131.684 18.312 132.708 17.032 134.756 17.032C135.951 17.032 136.847 17.5013 137.444 18.44C138.127 19.3787 138.468 20.5733 138.468 22.024V31.624C138.297 44.7653 137.785 59.016 136.932 74.376C136.079 89.736 135.055 98.3973 133.86 100.36C131.385 101.043 129.849 101.384 129.252 101.384Z" fill="#C2E7EF"/>
<path d="M159.654 101.768C157.435 101.768 156.326 96.1787 156.326 85L156.582 64.776C156.667 58.8027 156.71 52.104 156.71 44.68C156.71 41.9493 156.454 37.7253 155.942 32.008C155.515 25.7787 155.302 21.9813 155.302 20.616C155.302 19.5067 155.771 18.5253 156.71 17.672C157.649 16.8187 158.673 16.392 159.782 16.392C162.769 16.392 165.627 17.0747 168.358 18.44C171.174 19.72 173.649 21.5547 175.782 23.944C180.305 29.1493 183.291 34.8667 184.742 41.096C185.51 44.2533 185.894 47.368 185.894 50.44C185.894 51.5493 185.851 52.5733 185.766 53.512L185.638 56.968V64.008C185.638 69.4693 185.467 73.7787 185.126 76.936C184.614 81.2027 183.633 85 182.182 88.328C180.475 91.912 178.001 95.112 174.758 97.928C173.222 99.208 171.259 100.488 168.87 101.768H159.654ZM165.286 95.24C166.993 95.24 168.571 94.8133 170.022 93.96C171.473 93.0213 172.71 91.784 173.734 90.248C174.587 88.8827 175.355 87.176 176.038 85.128C176.806 82.9947 177.361 80.9467 177.702 78.984C178.47 75.144 178.939 71.2187 179.11 67.208C179.195 66.184 179.238 64.6907 179.238 62.728C179.238 36.9573 174.246 23.5173 164.262 22.408C163.665 26.248 163.366 30.6853 163.366 35.72C163.366 41.096 163.707 50.4827 164.39 63.88C164.987 75.7413 165.286 85.1707 165.286 92.168V95.24Z" fill="#C2E7EF"/>
<path d="M225.024 102.152C223.061 102.152 221.611 101.853 220.672 101.256C219.733 100.659 219.264 99.5493 219.264 97.928C219.264 95.368 218.837 91.016 217.984 84.872L217.472 82.184L204.8 80.264C204.288 82.2267 203.563 86.1947 202.624 92.168C202.112 96.3493 201.301 99.1227 200.192 100.488C199.595 101.256 198.741 101.64 197.632 101.64C196.608 101.64 195.669 101.341 194.816 100.744C193.963 100.061 193.536 99.2507 193.536 98.312L193.792 97.672L193.92 97.16C199.552 75.2293 203.819 53.5973 206.72 32.264C206.72 31.9227 206.763 31.368 206.848 30.6C206.933 29.7467 207.019 28.552 207.104 27.016C207.36 23.8587 207.616 21.3413 207.872 19.464C208.213 17.5867 208.725 16.1787 209.408 15.24H213.76C214.955 15.24 215.979 15.5387 216.832 16.136C217.685 16.648 218.112 17.416 218.112 18.44C218.112 24.9253 219.008 34.568 220.8 47.368C222.507 60.5093 223.36 69.7253 223.36 75.016C223.36 75.528 223.573 76.8507 224 78.984C224.427 80.9467 224.64 82.2267 224.64 82.824C224.64 83.4213 225.067 85.9813 225.92 90.504C226.688 94.6 227.072 97.2453 227.072 98.44V98.568C227.072 100.445 226.389 101.64 225.024 102.152ZM216.576 77.576C216.32 76.296 216.192 74.7173 216.192 72.84C216.192 65.16 215.509 55.3467 214.144 43.4L212.864 30.088C209.195 50.1413 206.677 65.288 205.312 75.528C206.592 76.3813 210.347 77.064 216.576 77.576Z" fill="#C2E7EF"/>
<path d="M248.554 102.792C247.103 102.792 245.909 101.853 244.97 99.976C245.909 98.184 246.378 90.9307 246.378 78.216C246.378 75.2293 246.165 71.9867 245.738 68.488L245.354 64.776C245.098 62.472 244.97 60.7227 244.97 59.528V56.2C244.117 54.0667 242.538 50.0987 240.234 44.296C238.015 38.4933 236.223 33.6293 234.858 29.704C233.237 25.1813 232.426 22.1093 232.426 20.488V19.848L235.37 17.672C236.821 17.8427 238.357 19.72 239.978 23.304C241.343 26.4613 242.837 30.984 244.458 36.872C246.165 42.76 247.018 45.8747 247.018 46.216C247.359 45.2773 248.042 42.0773 249.066 36.616C250.09 31.1547 251.242 26.3333 252.522 22.152C253.973 17.9707 255.466 15.88 257.002 15.88C257.855 15.88 258.581 16.136 259.178 16.648C259.861 17.16 260.202 17.8 260.202 18.568C260.202 22.92 259.007 29.064 256.618 37C254.058 45.6187 252.778 51.848 252.778 55.688V94.216C252.778 99.9333 251.37 102.792 248.554 102.792Z" fill="#C2E7EF"/>
<path d="M321.235 102.28C319.614 102.28 318.035 101.128 316.499 98.824V98.44C316.243 93.9173 315.475 88.8827 314.195 83.336C312.915 77.7893 311.038 71.0907 308.563 63.24C306.686 57.352 305.107 52.0613 303.827 47.368V97.8C303.827 99.1653 303.571 100.189 303.059 100.872C302.632 101.469 301.736 101.768 300.371 101.768C299.347 101.768 298.536 101.469 297.939 100.872C297.342 100.189 297.043 99.336 297.043 98.312V97.288L297.299 59.656C297.47 48.5627 297.555 36.0613 297.555 22.152V6.408C297.555 5.384 297.768 4.70133 298.195 4.35999C298.622 3.93333 299.518 3.71999 300.883 3.71999C303.016 3.71999 304.979 4.14666 306.771 4.99999C308.563 5.76799 310.099 6.87733 311.379 8.328C314.024 11.3147 315.731 14.8987 316.499 19.08C316.84 20.7867 317.011 22.7493 317.011 24.968C317.011 26.248 316.883 27.656 316.627 29.192C316.456 30.728 316.328 31.7093 316.243 32.136C316.072 32.9893 315.688 34.2693 315.091 35.976C314.494 37.6827 314.11 38.792 313.939 39.304L312.403 42.888L311.123 46.216C311.208 49.288 311.72 53.1707 312.659 57.864C313.683 62.5573 314.792 66.9093 315.987 70.92C316.84 73.736 318.376 78.4293 320.595 85L324.307 96.264V96.52C324.307 97.9707 324.179 99.208 323.923 100.232C323.667 101.597 322.771 102.28 321.235 102.28ZM303.571 41.608C304.766 40.4133 306.216 38.7493 307.923 36.616L309.843 25.608C309.928 25.1813 309.971 24.584 309.971 23.816C309.971 21.3413 309.502 18.4827 308.563 15.24C308.051 13.704 307.368 12.424 306.515 11.4C305.747 10.2907 304.936 9.69333 304.083 9.60799L303.827 22.408C303.571 28.1253 303.443 32.5627 303.443 35.72C303.443 38.7067 303.486 40.6693 303.571 41.608Z" fill="#C2E7EF"/>
<path d="M340.571 102.664C339.462 102.664 338.438 102.28 337.499 101.512C336.646 100.744 336.176 99.8053 336.091 98.696V92.808C336.006 92.04 335.963 91.144 335.963 90.12C335.963 88.328 335.835 85.5973 335.579 81.928L335.323 73.736C335.323 69.5547 335.451 63.3253 335.707 55.048C336.048 47.624 336.219 41.3947 336.219 36.36C336.219 35.1653 336.091 33.3733 335.835 30.984C335.579 28.5093 335.451 26.7173 335.451 25.608C335.451 19.5493 337.243 16.52 340.827 16.52C343.643 16.52 346.886 17.0747 350.555 18.184C354.31 19.2933 356.187 20.616 356.187 22.152C356.187 23.0053 355.803 23.816 355.035 24.584C354.352 25.2667 353.499 25.8213 352.475 26.248C348.891 24.968 345.648 24.1147 342.747 23.688C342.832 24.968 342.875 26.8027 342.875 29.192C342.875 32.6053 342.832 35.6773 342.747 38.408C342.491 42.504 342.363 45.576 342.363 47.624L342.747 49.672L344.795 49.544C345.478 49.4587 346.331 49.416 347.355 49.416C351.451 49.416 353.499 50.6107 353.499 53C353.499 53.9387 353.115 54.7493 352.347 55.432C351.579 56.0293 350.598 56.328 349.403 56.328C347.867 56.328 346.672 56.2427 345.819 56.072H342.619C342.79 58.2907 342.875 61.5333 342.875 65.8C342.875 70.0667 342.832 73.9067 342.747 77.32C342.491 82.5253 342.363 86.408 342.363 88.968C342.363 93.7467 342.448 96.136 342.619 96.136L346.843 96.008C348.294 95.9227 350.043 95.88 352.091 95.88C355.334 95.88 356.955 96.904 356.955 98.952C356.955 100.147 356.4 101.043 355.291 101.64C354.267 102.323 352.987 102.664 351.451 102.664H340.571Z" fill="#C2E7EF"/>
<path d="M373.362 102.792C371.826 102.536 370.503 101.981 369.394 101.128C368.37 100.275 367.773 99.1653 367.602 97.8L369.01 95.624C369.522 95.624 370.333 95.7947 371.442 96.136C372.722 96.392 373.703 96.52 374.386 96.52C375.922 96.52 377.287 95.8373 378.482 94.472C379.762 93.1067 380.701 91.3147 381.298 89.096C382.407 85 382.962 81.3307 382.962 78.088C382.962 72.456 381.17 66.5253 377.586 60.296L376.178 57.864C374.557 55.048 373.191 52.5307 372.082 50.312C370.973 48.0933 370.034 45.704 369.266 43.144C368.242 39.816 367.73 36.488 367.73 33.16C367.73 29.4053 368.583 25.48 370.29 21.384C371.143 19.4213 372.338 17.8427 373.874 16.648C375.495 15.368 377.287 14.728 379.25 14.728C380.786 14.728 382.194 15.24 383.474 16.264C384.839 17.2027 385.522 18.3547 385.522 19.72C385.522 20.488 385.223 21.0853 384.626 21.512C384.029 21.9387 383.303 22.152 382.45 22.152C381.511 22.152 380.615 21.896 379.762 21.384C377.885 21.4693 376.391 23.1333 375.282 26.376C374.343 29.3627 373.874 31.8373 373.874 33.8C373.874 36.2747 374.258 38.792 375.026 41.352C375.794 43.8267 376.775 46.088 377.97 48.136L380.786 53.256L385.266 61.704C386.461 64.0933 387.399 66.8667 388.082 70.024C388.85 73.1813 389.234 76.3813 389.234 79.624C389.234 84.8293 388.039 89.7787 385.65 94.472C384.455 96.8613 382.749 98.7813 380.53 100.232C378.397 101.683 376.007 102.408 373.362 102.408V102.792Z" fill="#C2E7EF"/>
<path d="M408.571 102.664C407.462 102.664 406.438 102.28 405.499 101.512C404.646 100.744 404.176 99.8053 404.091 98.696V92.808C404.006 92.04 403.963 91.144 403.963 90.12C403.963 88.328 403.835 85.5973 403.579 81.928L403.323 73.736C403.323 69.5547 403.451 63.3253 403.707 55.048C404.048 47.624 404.219 41.3947 404.219 36.36C404.219 35.1653 404.091 33.3733 403.835 30.984C403.579 28.5093 403.451 26.7173 403.451 25.608C403.451 19.5493 405.243 16.52 408.827 16.52C411.643 16.52 414.886 17.0747 418.555 18.184C422.31 19.2933 424.187 20.616 424.187 22.152C424.187 23.0053 423.803 23.816 423.035 24.584C422.352 25.2667 421.499 25.8213 420.475 26.248C416.891 24.968 413.648 24.1147 410.747 23.688C410.832 24.968 410.875 26.8027 410.875 29.192C410.875 32.6053 410.832 35.6773 410.747 38.408C410.491 42.504 410.363 45.576 410.363 47.624L410.747 49.672L412.795 49.544C413.478 49.4587 414.331 49.416 415.355 49.416C419.451 49.416 421.499 50.6107 421.499 53C421.499 53.9387 421.115 54.7493 420.347 55.432C419.579 56.0293 418.598 56.328 417.403 56.328C415.867 56.328 414.672 56.2427 413.819 56.072H410.619C410.79 58.2907 410.875 61.5333 410.875 65.8C410.875 70.0667 410.832 73.9067 410.747 77.32C410.491 82.5253 410.363 86.408 410.363 88.968C410.363 93.7467 410.448 96.136 410.619 96.136L414.843 96.008C416.294 95.9227 418.043 95.88 420.091 95.88C423.334 95.88 424.955 96.904 424.955 98.952C424.955 100.147 424.4 101.043 423.291 101.64C422.267 102.323 420.987 102.664 419.451 102.664H408.571Z" fill="#C2E7EF"/>
<path d="M446.226 98.952L446.098 93.96C446.013 92.5093 445.97 90.888 445.97 89.096L446.098 84.744C445.842 83.8053 445.202 74.4613 444.178 56.712C443.154 38.9627 442.557 27.5707 442.386 22.536C437.437 22.3653 434.279 21.8533 432.914 21C431.975 20.3173 431.506 19.5493 431.506 18.696C431.506 18.0133 431.933 17.416 432.786 16.904C433.725 16.3067 434.663 16.008 435.602 16.008C437.991 16.008 440.893 16.1787 444.306 16.52C447.549 16.9467 450.45 17.16 453.01 17.16H455.058C457.703 17.16 459.026 18.184 459.026 20.232C459.026 21.256 458.599 22.1093 457.746 22.792C456.893 23.3893 455.911 23.688 454.802 23.688C454.034 23.688 452.925 23.56 451.474 23.304L448.914 22.792L448.658 24.072C448.658 31.6667 449.383 43.784 450.834 60.424C452.199 76.04 452.882 88.1573 452.882 96.776C452.882 97.8 452.413 98.696 451.474 99.464C450.621 100.232 449.639 100.616 448.53 100.616L446.226 98.952Z" fill="#C2E7EF"/>
<path d="M15.976 103.816C12.904 103.816 10.2587 103.261 8.04 102.152C6.67467 101.384 5.992 100.488 5.992 99.464C5.992 98.44 6.248 97.6293 6.76 97.032C7.272 96.3493 7.99734 96.008 8.936 96.008C9.78934 96.008 11.0267 96.3493 12.648 97.032C14.44 97.7147 15.5493 98.056 15.976 98.056C17.5973 98.056 19.048 97.3733 20.328 96.008C21.6933 94.5573 22.76 92.68 23.528 90.376C25.064 86.1093 25.832 82.2693 25.832 78.856C25.832 75.1867 25.2347 71.3467 24.04 67.336C22.9307 63.24 21.3947 59.272 19.432 55.432L17.384 51.336C15.2507 47.0693 13.5867 43.6987 12.392 41.224C11.2827 38.7493 10.3013 36.0613 9.448 33.16C8.168 29.064 7.528 25.096 7.528 21.256C7.528 18.184 8.04 15.2827 9.064 12.552C10.1733 9.82133 11.7947 7.51733 13.928 5.63999C16.0613 3.59199 18.7067 2.56799 21.864 2.56799C23.4 2.56799 24.8933 3.03733 26.344 3.976C27.7947 4.82933 28.8187 5.93866 29.416 7.30399L27.24 9.992C25.0213 9.992 23.3573 9.56533 22.248 8.712C20.712 8.88266 19.3467 9.65066 18.152 11.016C17.0427 12.296 16.1893 13.7893 15.592 15.496C15.08 17.1173 14.824 18.7387 14.824 20.36C14.824 23.6027 15.2507 26.9307 16.104 30.344C17.0427 33.672 18.2373 36.8293 19.688 39.816L28.648 57.736C30.0987 60.808 31.2507 64.264 32.104 68.104C32.9573 71.944 33.384 75.784 33.384 79.624C33.384 85.256 32.0187 90.5467 29.288 95.496C27.8373 98.056 25.96 100.061 23.656 101.512C21.352 103.048 18.792 103.816 15.976 103.816Z" stroke="black" stroke-width="4" mask="url(#path-1-outside-1_75_11)"/>
<path d="M61.754 102.92C59.706 102.92 57.8713 102.451 56.25 101.512C54.6287 100.659 53.306 99.3787 52.282 97.672C50.234 94.088 48.9113 90.0347 48.314 85.512C47.7167 81.5867 47.418 76.8933 47.418 71.432C47.162 62.216 47.034 50.952 47.034 37.64L46.906 27.784C46.8207 27.272 46.778 26.4187 46.778 25.224C46.6073 21.9813 46.522 20.0187 46.522 19.336C47.29 17.544 48.186 16.648 49.21 16.648C50.234 16.648 51.13 17.416 51.898 18.952C52.7513 20.488 53.178 22.152 53.178 23.944V58.76C53.178 62.1733 53.4767 66.696 54.074 72.328C54.6713 79.3253 54.97 83.848 54.97 85.896C54.97 92.2107 57.658 95.368 63.034 95.368C69.178 95.368 72.25 72.4133 72.25 26.504V18.184C72.1647 17.928 72.122 17.5867 72.122 17.16C72.122 16.136 72.3353 15.4107 72.762 14.984C73.274 14.472 74.2127 14.216 75.578 14.216C76.6873 14.216 77.5407 14.5573 78.138 15.24C78.8207 15.8373 79.2473 16.5627 79.418 17.416C79.5033 17.928 79.546 18.9093 79.546 20.36C79.546 21.7253 79.418 23.9013 79.162 26.888C78.8207 29.3627 78.65 31.496 78.65 33.288C78.65 35.2507 78.5647 37 78.394 38.536L78.138 43.912V44.936C78.2233 45.2773 78.266 45.6613 78.266 46.088C78.266 83.976 72.762 102.92 61.754 102.92Z" stroke="black" stroke-width="4" mask="url(#path-1-outside-1_75_11)"/>
<path d="M129.252 101.384C128.228 101.384 127.46 101.128 126.948 100.616C126.436 100.019 126.052 99.0373 125.796 97.672L125.028 95.24V94.6C125.028 91.784 122.084 82.184 116.196 65.8C110.393 49.416 105.828 37.2987 102.5 29.448V93.832L103.012 94.728C103.097 94.8987 103.268 95.1973 103.524 95.624C103.78 96.0507 103.908 96.4773 103.908 96.904C103.908 98.0133 103.524 98.952 102.756 99.72C101.988 100.488 101.049 100.872 99.94 100.872C97.2093 100.872 95.844 98.2693 95.844 93.064L95.716 71.176C95.6307 64.6053 95.588 57.2667 95.588 49.16C95.588 46.4293 95.716 42.4613 95.972 37.256C96.228 31.88 96.356 27.912 96.356 25.352C96.356 21.3413 97.892 18.184 100.964 15.88V16.648C101.476 16.4773 101.817 16.392 101.988 16.392C103.951 16.392 106.425 19.8053 109.412 26.632C111.801 32.0933 113.935 37.8533 115.812 43.912C117.775 49.9707 120.335 58.5893 123.492 69.768L124.772 74.376C126.735 81.288 128.228 86.2373 129.252 89.224C130.959 70.8773 131.812 49.2027 131.812 24.2V22.536C131.727 22.024 131.684 21.4693 131.684 20.872C131.684 18.312 132.708 17.032 134.756 17.032C135.951 17.032 136.847 17.5013 137.444 18.44C138.127 19.3787 138.468 20.5733 138.468 22.024V31.624C138.297 44.7653 137.785 59.016 136.932 74.376C136.079 89.736 135.055 98.3973 133.86 100.36C131.385 101.043 129.849 101.384 129.252 101.384Z" stroke="black" stroke-width="4" mask="url(#path-1-outside-1_75_11)"/>
<path d="M159.654 101.768C157.435 101.768 156.326 96.1787 156.326 85L156.582 64.776C156.667 58.8027 156.71 52.104 156.71 44.68C156.71 41.9493 156.454 37.7253 155.942 32.008C155.515 25.7787 155.302 21.9813 155.302 20.616C155.302 19.5067 155.771 18.5253 156.71 17.672C157.649 16.8187 158.673 16.392 159.782 16.392C162.769 16.392 165.627 17.0747 168.358 18.44C171.174 19.72 173.649 21.5547 175.782 23.944C180.305 29.1493 183.291 34.8667 184.742 41.096C185.51 44.2533 185.894 47.368 185.894 50.44C185.894 51.5493 185.851 52.5733 185.766 53.512L185.638 56.968V64.008C185.638 69.4693 185.467 73.7787 185.126 76.936C184.614 81.2027 183.633 85 182.182 88.328C180.475 91.912 178.001 95.112 174.758 97.928C173.222 99.208 171.259 100.488 168.87 101.768H159.654ZM165.286 95.24C166.993 95.24 168.571 94.8133 170.022 93.96C171.473 93.0213 172.71 91.784 173.734 90.248C174.587 88.8827 175.355 87.176 176.038 85.128C176.806 82.9947 177.361 80.9467 177.702 78.984C178.47 75.144 178.939 71.2187 179.11 67.208C179.195 66.184 179.238 64.6907 179.238 62.728C179.238 36.9573 174.246 23.5173 164.262 22.408C163.665 26.248 163.366 30.6853 163.366 35.72C163.366 41.096 163.707 50.4827 164.39 63.88C164.987 75.7413 165.286 85.1707 165.286 92.168V95.24Z" stroke="black" stroke-width="4" mask="url(#path-1-outside-1_75_11)"/>
<path d="M225.024 102.152C223.061 102.152 221.611 101.853 220.672 101.256C219.733 100.659 219.264 99.5493 219.264 97.928C219.264 95.368 218.837 91.016 217.984 84.872L217.472 82.184L204.8 80.264C204.288 82.2267 203.563 86.1947 202.624 92.168C202.112 96.3493 201.301 99.1227 200.192 100.488C199.595 101.256 198.741 101.64 197.632 101.64C196.608 101.64 195.669 101.341 194.816 100.744C193.963 100.061 193.536 99.2507 193.536 98.312L193.792 97.672L193.92 97.16C199.552 75.2293 203.819 53.5973 206.72 32.264C206.72 31.9227 206.763 31.368 206.848 30.6C206.933 29.7467 207.019 28.552 207.104 27.016C207.36 23.8587 207.616 21.3413 207.872 19.464C208.213 17.5867 208.725 16.1787 209.408 15.24H213.76C214.955 15.24 215.979 15.5387 216.832 16.136C217.685 16.648 218.112 17.416 218.112 18.44C218.112 24.9253 219.008 34.568 220.8 47.368C222.507 60.5093 223.36 69.7253 223.36 75.016C223.36 75.528 223.573 76.8507 224 78.984C224.427 80.9467 224.64 82.2267 224.64 82.824C224.64 83.4213 225.067 85.9813 225.92 90.504C226.688 94.6 227.072 97.2453 227.072 98.44V98.568C227.072 100.445 226.389 101.64 225.024 102.152ZM216.576 77.576C216.32 76.296 216.192 74.7173 216.192 72.84C216.192 65.16 215.509 55.3467 214.144 43.4L212.864 30.088C209.195 50.1413 206.677 65.288 205.312 75.528C206.592 76.3813 210.347 77.064 216.576 77.576Z" stroke="black" stroke-width="4" mask="url(#path-1-outside-1_75_11)"/>
<path d="M248.554 102.792C247.103 102.792 245.909 101.853 244.97 99.976C245.909 98.184 246.378 90.9307 246.378 78.216C246.378 75.2293 246.165 71.9867 245.738 68.488L245.354 64.776C245.098 62.472 244.97 60.7227 244.97 59.528V56.2C244.117 54.0667 242.538 50.0987 240.234 44.296C238.015 38.4933 236.223 33.6293 234.858 29.704C233.237 25.1813 232.426 22.1093 232.426 20.488V19.848L235.37 17.672C236.821 17.8427 238.357 19.72 239.978 23.304C241.343 26.4613 242.837 30.984 244.458 36.872C246.165 42.76 247.018 45.8747 247.018 46.216C247.359 45.2773 248.042 42.0773 249.066 36.616C250.09 31.1547 251.242 26.3333 252.522 22.152C253.973 17.9707 255.466 15.88 257.002 15.88C257.855 15.88 258.581 16.136 259.178 16.648C259.861 17.16 260.202 17.8 260.202 18.568C260.202 22.92 259.007 29.064 256.618 37C254.058 45.6187 252.778 51.848 252.778 55.688V94.216C252.778 99.9333 251.37 102.792 248.554 102.792Z" stroke="black" stroke-width="4" mask="url(#path-1-outside-1_75_11)"/>
<path d="M321.235 102.28C319.614 102.28 318.035 101.128 316.499 98.824V98.44C316.243 93.9173 315.475 88.8827 314.195 83.336C312.915 77.7893 311.038 71.0907 308.563 63.24C306.686 57.352 305.107 52.0613 303.827 47.368V97.8C303.827 99.1653 303.571 100.189 303.059 100.872C302.632 101.469 301.736 101.768 300.371 101.768C299.347 101.768 298.536 101.469 297.939 100.872C297.342 100.189 297.043 99.336 297.043 98.312V97.288L297.299 59.656C297.47 48.5627 297.555 36.0613 297.555 22.152V6.408C297.555 5.384 297.768 4.70133 298.195 4.35999C298.622 3.93333 299.518 3.71999 300.883 3.71999C303.016 3.71999 304.979 4.14666 306.771 4.99999C308.563 5.76799 310.099 6.87733 311.379 8.328C314.024 11.3147 315.731 14.8987 316.499 19.08C316.84 20.7867 317.011 22.7493 317.011 24.968C317.011 26.248 316.883 27.656 316.627 29.192C316.456 30.728 316.328 31.7093 316.243 32.136C316.072 32.9893 315.688 34.2693 315.091 35.976C314.494 37.6827 314.11 38.792 313.939 39.304L312.403 42.888L311.123 46.216C311.208 49.288 311.72 53.1707 312.659 57.864C313.683 62.5573 314.792 66.9093 315.987 70.92C316.84 73.736 318.376 78.4293 320.595 85L324.307 96.264V96.52C324.307 97.9707 324.179 99.208 323.923 100.232C323.667 101.597 322.771 102.28 321.235 102.28ZM303.571 41.608C304.766 40.4133 306.216 38.7493 307.923 36.616L309.843 25.608C309.928 25.1813 309.971 24.584 309.971 23.816C309.971 21.3413 309.502 18.4827 308.563 15.24C308.051 13.704 307.368 12.424 306.515 11.4C305.747 10.2907 304.936 9.69333 304.083 9.60799L303.827 22.408C303.571 28.1253 303.443 32.5627 303.443 35.72C303.443 38.7067 303.486 40.6693 303.571 41.608Z" stroke="black" stroke-width="4" mask="url(#path-1-outside-1_75_11)"/>
<path d="M340.571 102.664C339.462 102.664 338.438 102.28 337.499 101.512C336.646 100.744 336.176 99.8053 336.091 98.696V92.808C336.006 92.04 335.963 91.144 335.963 90.12C335.963 88.328 335.835 85.5973 335.579 81.928L335.323 73.736C335.323 69.5547 335.451 63.3253 335.707 55.048C336.048 47.624 336.219 41.3947 336.219 36.36C336.219 35.1653 336.091 33.3733 335.835 30.984C335.579 28.5093 335.451 26.7173 335.451 25.608C335.451 19.5493 337.243 16.52 340.827 16.52C343.643 16.52 346.886 17.0747 350.555 18.184C354.31 19.2933 356.187 20.616 356.187 22.152C356.187 23.0053 355.803 23.816 355.035 24.584C354.352 25.2667 353.499 25.8213 352.475 26.248C348.891 24.968 345.648 24.1147 342.747 23.688C342.832 24.968 342.875 26.8027 342.875 29.192C342.875 32.6053 342.832 35.6773 342.747 38.408C342.491 42.504 342.363 45.576 342.363 47.624L342.747 49.672L344.795 49.544C345.478 49.4587 346.331 49.416 347.355 49.416C351.451 49.416 353.499 50.6107 353.499 53C353.499 53.9387 353.115 54.7493 352.347 55.432C351.579 56.0293 350.598 56.328 349.403 56.328C347.867 56.328 346.672 56.2427 345.819 56.072H342.619C342.79 58.2907 342.875 61.5333 342.875 65.8C342.875 70.0667 342.832 73.9067 342.747 77.32C342.491 82.5253 342.363 86.408 342.363 88.968C342.363 93.7467 342.448 96.136 342.619 96.136L346.843 96.008C348.294 95.9227 350.043 95.88 352.091 95.88C355.334 95.88 356.955 96.904 356.955 98.952C356.955 100.147 356.4 101.043 355.291 101.64C354.267 102.323 352.987 102.664 351.451 102.664H340.571Z" stroke="black" stroke-width="4" mask="url(#path-1-outside-1_75_11)"/>
<path d="M373.362 102.792C371.826 102.536 370.503 101.981 369.394 101.128C368.37 100.275 367.773 99.1653 367.602 97.8L369.01 95.624C369.522 95.624 370.333 95.7947 371.442 96.136C372.722 96.392 373.703 96.52 374.386 96.52C375.922 96.52 377.287 95.8373 378.482 94.472C379.762 93.1067 380.701 91.3147 381.298 89.096C382.407 85 382.962 81.3307 382.962 78.088C382.962 72.456 381.17 66.5253 377.586 60.296L376.178 57.864C374.557 55.048 373.191 52.5307 372.082 50.312C370.973 48.0933 370.034 45.704 369.266 43.144C368.242 39.816 367.73 36.488 367.73 33.16C367.73 29.4053 368.583 25.48 370.29 21.384C371.143 19.4213 372.338 17.8427 373.874 16.648C375.495 15.368 377.287 14.728 379.25 14.728C380.786 14.728 382.194 15.24 383.474 16.264C384.839 17.2027 385.522 18.3547 385.522 19.72C385.522 20.488 385.223 21.0853 384.626 21.512C384.029 21.9387 383.303 22.152 382.45 22.152C381.511 22.152 380.615 21.896 379.762 21.384C377.885 21.4693 376.391 23.1333 375.282 26.376C374.343 29.3627 373.874 31.8373 373.874 33.8C373.874 36.2747 374.258 38.792 375.026 41.352C375.794 43.8267 376.775 46.088 377.97 48.136L380.786 53.256L385.266 61.704C386.461 64.0933 387.399 66.8667 388.082 70.024C388.85 73.1813 389.234 76.3813 389.234 79.624C389.234 84.8293 388.039 89.7787 385.65 94.472C384.455 96.8613 382.749 98.7813 380.53 100.232C378.397 101.683 376.007 102.408 373.362 102.408V102.792Z" stroke="black" stroke-width="4" mask="url(#path-1-outside-1_75_11)"/>
<path d="M408.571 102.664C407.462 102.664 406.438 102.28 405.499 101.512C404.646 100.744 404.176 99.8053 404.091 98.696V92.808C404.006 92.04 403.963 91.144 403.963 90.12C403.963 88.328 403.835 85.5973 403.579 81.928L403.323 73.736C403.323 69.5547 403.451 63.3253 403.707 55.048C404.048 47.624 404.219 41.3947 404.219 36.36C404.219 35.1653 404.091 33.3733 403.835 30.984C403.579 28.5093 403.451 26.7173 403.451 25.608C403.451 19.5493 405.243 16.52 408.827 16.52C411.643 16.52 414.886 17.0747 418.555 18.184C422.31 19.2933 424.187 20.616 424.187 22.152C424.187 23.0053 423.803 23.816 423.035 24.584C422.352 25.2667 421.499 25.8213 420.475 26.248C416.891 24.968 413.648 24.1147 410.747 23.688C410.832 24.968 410.875 26.8027 410.875 29.192C410.875 32.6053 410.832 35.6773 410.747 38.408C410.491 42.504 410.363 45.576 410.363 47.624L410.747 49.672L412.795 49.544C413.478 49.4587 414.331 49.416 415.355 49.416C419.451 49.416 421.499 50.6107 421.499 53C421.499 53.9387 421.115 54.7493 420.347 55.432C419.579 56.0293 418.598 56.328 417.403 56.328C415.867 56.328 414.672 56.2427 413.819 56.072H410.619C410.79 58.2907 410.875 61.5333 410.875 65.8C410.875 70.0667 410.832 73.9067 410.747 77.32C410.491 82.5253 410.363 86.408 410.363 88.968C410.363 93.7467 410.448 96.136 410.619 96.136L414.843 96.008C416.294 95.9227 418.043 95.88 420.091 95.88C423.334 95.88 424.955 96.904 424.955 98.952C424.955 100.147 424.4 101.043 423.291 101.64C422.267 102.323 420.987 102.664 419.451 102.664H408.571Z" stroke="black" stroke-width="4" mask="url(#path-1-outside-1_75_11)"/>
<path d="M446.226 98.952L446.098 93.96C446.013 92.5093 445.97 90.888 445.97 89.096L446.098 84.744C445.842 83.8053 445.202 74.4613 444.178 56.712C443.154 38.9627 442.557 27.5707 442.386 22.536C437.437 22.3653 434.279 21.8533 432.914 21C431.975 20.3173 431.506 19.5493 431.506 18.696C431.506 18.0133 431.933 17.416 432.786 16.904C433.725 16.3067 434.663 16.008 435.602 16.008C437.991 16.008 440.893 16.1787 444.306 16.52C447.549 16.9467 450.45 17.16 453.01 17.16H455.058C457.703 17.16 459.026 18.184 459.026 20.232C459.026 21.256 458.599 22.1093 457.746 22.792C456.893 23.3893 455.911 23.688 454.802 23.688C454.034 23.688 452.925 23.56 451.474 23.304L448.914 22.792L448.658 24.072C448.658 31.6667 449.383 43.784 450.834 60.424C452.199 76.04 452.882 88.1573 452.882 96.776C452.882 97.8 452.413 98.696 451.474 99.464C450.621 100.232 449.639 100.616 448.53 100.616L446.226 98.952Z" stroke="black" stroke-width="4" mask="url(#path-1-outside-1_75_11)"/>
</g>
<defs>
<filter id="filter0_d_75_11" x="-0.00799561" y="0.567993" width="465.034" height="113.248" filterUnits="userSpaceOnUse" color-interpolation-filters="sRGB">
<feFlood flood-opacity="0" result="BackgroundImageFix"/>
<feColorMatrix in="SourceAlpha" type="matrix" values="0 0 0 0 0 0 0 0 0 0 0 0 0 0 0 0 0 0 127 0" result="hardAlpha"/>
<feOffset dy="4"/>
<feGaussianBlur stdDeviation="2"/>
<feComposite in2="hardAlpha" operator="out"/>
<feColorMatrix type="matrix" values="0 0 0 0 0 0 0 0 0 0 0 0 0 0 0 0 0 0 0.25 0"/>
<feBlend mode="normal" in2="BackgroundImageFix" result="effect1_dropShadow_75_11"/>
<feBlend mode="normal" in="SourceGraphic" in2="effect1_dropShadow_75_11" result="shape"/>
</filter>
</defs>
</svg>
